<svg width="340" height="360" viewBox="0 0 340 360" fill="none" xmlns="http://www.w3.org/2000/svg">
<path d="M268.076 158.997C258.876 207.797 271.909 262.664 279.576 283.997C279.576 298.663 322.077 345.497 253.077 353.497C224.267 356.837 172.679 340.914 151.076 283.997C125.076 215.497 179.91 110.039 227.576 82.9968C287.5 49.0002 279.576 97.9968 268.076 158.997Z" fill="#89B6EC"/>
<path d="M299.526 2.26221C296.221 5.20052 320.094 48.1732 327.44 52.2134C331.848 54.7844 334.419 53.3152 337.357 46.7041C340.663 39.7256 339.561 34.5836 332.582 19.892C325.604 4.83323 322.298 1.89492 313.116 0.793061C306.872 0.0584845 300.628 0.793061 299.526 2.26221ZM327.44 29.4415C329.277 35.6854 328.909 36.7873 326.706 33.1144C324.869 30.1761 321.931 23.5649 320.829 18.4229C318.993 12.179 319.36 11.0771 321.564 14.75C323.4 17.6883 326.338 24.2995 327.44 29.4415Z" fill="black"/>
<path d="M8.62982 11.8116C7.52795 14.3826 6.0588 24.6667 5.32422 34.9508C4.22236 44.8675 2.38592 56.2535 0.916767 59.5591C-1.28696 65.0684 0.182191 66.1702 8.62982 66.1702C27.3615 66.1702 30.2998 61.3955 30.2998 34.2162C30.2998 9.60789 30.2998 9.2406 20.0157 8.13874C14.1391 7.40416 9.36439 8.87331 8.62982 11.8116ZM17.812 50.3769C14.8737 55.5189 14.1391 52.9479 13.7718 38.2564C13.7718 27.9723 14.8737 18.4228 16.7102 16.9536C20.7503 12.5462 21.8522 43.3984 17.812 50.3769Z" fill="black"/>
<path d="M56.3722 10.3417C55.6377 11.8109 50.4956 24.666 44.9863 38.6229C35.4368 64.3331 36.5387 71.6788 49.0265 69.1078C58.9433 67.2714 77.6749 28.7061 74.7366 16.5856C72.5329 7.77073 60.7797 3.73056 56.3722 10.3417ZM61.5143 29.4407C55.6377 44.1322 53.0667 41.5612 58.2087 26.1351C60.4124 19.5239 63.3507 15.1165 64.4526 16.2184C65.1872 17.3202 64.0853 23.1968 61.5143 29.4407Z" fill="black"/>
<path d="M260.223 18.0555C254.347 28.7069 282.261 66.1702 296.218 66.1702C306.869 66.1702 314.949 60.2936 314.949 52.9479C314.949 45.6021 278.221 11.077 270.508 11.077C266.835 11.077 262.06 14.0154 260.223 18.0555ZM291.076 36.7872C300.992 46.704 307.236 55.1516 304.665 55.1516C299.156 55.1516 270.875 27.9723 270.875 22.463C270.875 16.5864 271.609 16.9537 291.076 36.7872Z" fill="black"/>
<path d="M72.5356 51.845C57.1095 70.2094 54.9058 74.9841 57.8441 81.228C64.088 92.2466 70.6992 89.6756 95.3075 66.1692L118.447 44.1319L109.632 36.7861C104.857 32.746 98.9804 29.4404 96.0421 29.4404C93.471 29.4404 82.8197 39.3572 72.5356 51.845ZM94.5729 45.9683C92.0019 49.2739 89.0636 50.7431 88.329 50.0085C85.758 47.4375 90.9 40.459 95.3075 40.459C97.5112 40.459 97.5112 42.6628 94.5729 45.9683Z" fill="black"/>
<path d="M229.366 34.9504L219.082 38.9906L231.202 51.8456C237.813 59.1914 247.73 70.21 253.239 76.8212C264.258 90.0436 269.4 90.0436 277.113 78.2904C282.255 70.9446 281.153 69.1082 266.829 53.3148C246.995 32.0121 242.221 29.4411 229.366 34.9504ZM258.749 58.8241L271.604 75.3521L259.483 62.1297C252.505 54.7839 243.69 47.0709 239.65 44.4999C233.038 40.4597 233.038 40.0924 239.282 41.1943C242.955 41.9289 251.77 49.6419 258.749 58.8241Z" fill="black"/>
<path d="M104.857 72.781C93.1039 84.9015 83.5544 97.022 83.5544 99.9603C83.5544 103.266 86.86 109.51 90.5329 114.285C97.1441 122.365 98.6133 122.732 105.959 118.325C115.141 112.448 115.141 110.979 105.959 163.868C103.755 176.356 101.552 216.391 101.184 253.119L100.082 319.966L115.508 334.657C124.691 343.105 134.607 348.982 140.117 348.982C144.892 348.982 149.666 351.553 151.135 354.491C152.605 358.898 159.583 360 181.988 360C214.309 360 220.553 356.327 219.084 339.065C218.349 333.555 221.655 321.068 226.429 311.518C233.775 295.358 234.143 292.052 230.102 274.789C224.593 249.814 222.022 165.705 225.695 139.627C228.266 123.834 230.102 119.059 235.979 118.325C246.998 116.121 256.18 106.571 256.18 97.3893C256.18 88.2071 214.676 51.4783 204.392 51.4783C201.454 51.4783 194.843 55.5185 190.068 60.6605C184.559 66.5371 177.58 69.8427 169.867 69.8427C162.154 69.8427 155.176 66.5371 149.666 60.6605C144.892 55.5185 137.913 51.4783 133.873 51.4783C129.833 51.4783 116.978 61.0278 104.857 72.781ZM141.586 65.4352C142.321 68.0062 139.749 69.8427 135.709 69.8427C131.669 69.8427 125.058 70.9445 121.385 72.0464C116.243 73.5156 116.978 72.4137 123.589 66.5371C132.771 58.4568 139.015 58.0895 141.586 65.4352ZM214.676 68.7408C211.371 71.6791 197.046 65.8025 199.25 62.1296C200.719 60.2932 204.392 60.2932 208.8 62.8642C213.207 65.0679 215.411 67.639 214.676 68.7408ZM216.513 83.7996C221.655 88.9417 222.022 115.386 217.615 138.158L215.411 151.013L204.392 141.464C198.148 136.322 191.537 132.282 189.701 132.282C187.864 132.282 186.395 126.038 186.395 118.692C186.395 102.164 174.642 88.2071 160.318 88.2071C147.83 88.2071 142.321 95.1856 139.749 113.55C138.28 123.834 134.975 130.078 128.731 134.118L119.549 140.362L122.12 115.019C126.16 78.2903 128.731 76.4539 174.275 77.923C198.516 78.6576 213.574 80.8613 216.513 83.7996ZM168.031 101.062C171.704 105.47 171.704 109.877 168.398 120.896C166.194 128.609 164.358 139.995 164.358 146.239C164.358 162.032 158.481 163.868 151.135 150.279C144.524 137.056 145.626 110.244 153.339 101.062C159.216 94.0837 162.154 94.0837 168.031 101.062ZM142.688 154.319C147.83 170.847 158.114 176.356 171.336 169.01C179.784 164.603 181.62 151.013 174.642 144.035C167.663 137.056 186.762 138.526 197.046 145.871C205.494 151.748 205.861 152.85 203.658 191.415C202.188 216.758 202.923 238.428 205.494 250.548C207.698 261.2 209.902 279.931 209.902 292.052L210.269 314.089L194.475 322.17C185.661 326.577 176.478 332.086 173.54 334.29C166.562 340.167 128.364 336.126 119.916 328.413C105.224 315.191 101.919 277.36 111.468 233.286C114.407 218.962 118.447 194.721 120.283 178.56C125.058 138.158 134.607 127.507 142.688 154.319ZM212.105 344.941C212.105 349.349 202.556 352.654 190.803 352.287L180.886 351.92L191.904 347.145C204.759 341.268 212.105 340.167 212.105 344.941Z" fill="black"/>
<path d="M125.791 247.243C120.649 251.283 119.18 257.527 118.812 280.299C118.445 306.377 119.18 309.315 128.729 318.497C136.809 326.945 141.951 328.781 154.806 328.414C173.538 328.047 192.27 321.068 195.208 313.722C196.31 310.784 198.146 297.929 199.616 284.707C201.452 265.975 200.717 258.996 195.943 251.651C190.433 243.203 187.862 242.468 161.418 242.468C143.053 242.468 130.198 244.305 125.791 247.243ZM189.332 257.895C190.433 263.771 187.495 264.506 167.662 264.506C150.399 264.506 143.788 265.975 140.115 270.75C133.871 279.197 133.871 281.034 140.85 288.012C144.522 292.052 153.337 293.889 168.396 293.889C187.495 293.889 190.066 294.623 190.066 300.867C190.066 307.478 177.578 319.599 171.334 319.599C169.865 319.599 167.662 315.559 166.56 310.417C165.091 304.173 161.05 300.867 152.235 299.398C145.624 297.929 137.911 297.562 134.973 298.296C130.565 299.031 129.096 294.623 128.362 278.095C127.26 258.996 127.994 256.793 135.707 253.487C140.482 251.651 154.072 250.549 166.192 250.916C183.822 251.651 188.23 252.753 189.332 257.895ZM185.659 274.422C181.986 275.157 176.109 275.157 172.804 274.422C169.131 273.321 172.069 272.586 179.047 272.586C186.026 272.586 188.964 273.321 185.659 274.422Z" fill="black"/>
</svg>
